<?xml version="1.0" encoding="utf-8"?>
<!-- Generator: Adobe Illustrator 27.4.1, SVG Export Plug-In . SVG Version: 6.00 Build 0)  -->
<svg version="1.0" id="Capa_1" xmlns="http://www.w3.org/2000/svg" xmlns:xlink="http://www.w3.org/1999/xlink" x="0px" y="0px"
	 viewBox="0 0 572.1 49.2" style="enable-background:new 0 0 572.1 49.2;" xml:space="preserve">
<style type="text/css">
	.st0{fill:#4790DB;}
</style>
<g>
	<path class="st0" d="M32.5,34.1c-1.2,1.3-3.1,2-5.5,2c-2.5,0-4.5-0.8-5.9-2.5C19.7,32,19,28.9,19,24.5c0-3.6,0.6-6.2,1.7-7.9
		c1.5-2.3,3.7-3.4,6.6-3.4c1.3,0,2.4,0.3,3.5,0.8c1,0.5,1.9,1.2,2.6,2.2c0.4,0.6,0.8,1.5,1.2,2.7L46,16.4C44.5,12.1,42.3,9,39.4,7
		c-3-2-7.1-3.1-12.3-3.1c-6.6,0-11.8,1.8-15.4,5.3c-3.6,3.6-5.4,8.7-5.4,15.3c0,5,1,9.1,3.1,12.2c2.1,3.2,4.5,5.4,7.4,6.7
		c2.8,1.3,6.5,1.9,11,1.9c3.7,0,6.7-0.5,9.1-1.6c2.4-1,4.4-2.6,6-4.6s2.8-4.6,3.5-7.6l-11.2-3.3C34.6,30.8,33.7,32.7,32.5,34.1z"/>
	<path class="st0" d="M72.3,3.9c-6.7,0-11.9,1.8-15.7,5.5C52.8,13,51,18.1,51,24.7c0,4.7,1,8.6,2.8,11.7c1.9,3.1,4.4,5.4,7.4,6.8
		c3.1,1.4,6.9,2.2,11.6,2.2c4.6,0,8.4-0.8,11.5-2.5s5.4-4,7-7s2.4-6.8,2.4-11.5c0-6.5-1.9-11.5-5.6-15C84.4,5.7,79.1,3.9,72.3,3.9z
		 M78.7,33.5c-1.5,1.7-3.6,2.6-6.4,2.6c-2.7,0-4.8-0.9-6.3-2.6c-1.5-1.8-2.3-4.7-2.3-8.7c0-4.1,0.8-7,2.3-8.8
		c1.6-1.8,3.6-2.6,6.2-2.6c2.7,0,4.8,0.9,6.4,2.6s2.4,4.5,2.4,8.3C81,28.6,80.2,31.8,78.7,33.5z"/>
	<polygon class="st0" points="128.1,26.8 112.6,4.6 100.7,4.6 100.7,44.7 112.7,44.7 112.7,22.7 128.1,44.7 140.1,44.7 140.1,4.6 
		128.1,4.6 	"/>
	<polygon class="st0" points="176.1,26.8 160.6,4.6 148.7,4.6 148.7,44.7 160.7,44.7 160.7,22.7 176.1,44.7 188.1,44.7 188.1,4.6 
		176.1,4.6 	"/>
	<polygon class="st0" points="209.4,27.7 229.2,27.7 229.2,19.5 209.4,19.5 209.4,13.1 230.8,13.1 230.8,4.6 196.6,4.6 196.6,44.7 
		231.4,44.7 231.4,35.6 209.4,35.6 	"/>
	<path class="st0" d="M263,34.1c-1.2,1.3-3.1,2-5.5,2c-2.5,0-4.5-0.8-5.9-2.5c-1.4-1.6-2.1-4.7-2.1-9.1c0-3.6,0.6-6.2,1.7-7.9
		c1.5-2.3,3.7-3.4,6.6-3.4c1.3,0,2.4,0.3,3.5,0.8c1,0.5,1.9,1.2,2.6,2.2c0.4,0.6,0.8,1.5,1.2,2.7l11.3-2.4c-1.4-4.2-3.7-7.4-6.6-9.4
		c-3-2-7.1-3.1-12.3-3.1c-6.6,0-11.8,1.8-15.4,5.3c-3.6,3.6-5.4,8.7-5.4,15.3c0,5,1,9.1,3.1,12.2c2.1,3.2,4.5,5.4,7.4,6.7
		c2.8,1.3,6.5,1.9,11,1.9c3.7,0,6.7-0.5,9.1-1.6c2.4-1,4.4-2.6,6-4.6s2.8-4.6,3.5-7.6l-11.2-3.3C265.2,30.8,264.2,32.7,263,34.1z"/>
	<polygon class="st0" points="280.2,14.5 293.2,14.5 293.2,44.7 305.9,44.7 305.9,14.5 318.9,14.5 318.9,4.6 280.2,4.6 	"/>
	<path class="st0" d="M364.7,30.1h8.5v3.8c-1.7,1-3.2,1.7-4.5,2.1c-1.3,0.4-2.6,0.6-4.1,0.6c-3,0-5.3-0.9-7-2.8
		c-1.7-1.9-2.5-5-2.5-9.3c0-4.1,0.8-7.1,2.5-9s3.9-2.8,6.7-2.8c1.9,0,3.4,0.4,4.6,1.2s2.1,2,2.6,3.5l12.3-2.1
		c-0.8-2.6-1.9-4.7-3.4-6.4S377,6,374.8,5.2c-2.3-0.8-5.7-1.2-10.2-1.2c-4.7,0-8.5,0.6-11.3,1.9c-3.6,1.7-6.3,4.1-8.2,7.4
		c-1.9,3.2-2.8,7-2.8,11.4c0,4.2,0.8,7.8,2.6,11c1.7,3.2,4.1,5.6,7.2,7.2c3.1,1.6,7.1,2.4,12,2.4c4,0,7.4-0.5,10.3-1.4
		s6.2-2.6,10-5.1v-17h-19.7V30.1z"/>
	<path class="st0" d="M424.7,30.6c-0.9-1.1-1.6-1.8-2-2.1c-0.7-0.5-1.8-1-3.3-1.5c1.9-0.4,3.4-0.9,4.5-1.6c1.7-1,3-2.3,4-3.9
		s1.5-3.5,1.5-5.8c0-2.6-0.6-4.7-1.9-6.5s-3-3-5-3.7c-2.1-0.7-5.1-1-9-1h-21.3v40.1H405V28.4h1.1c1.2,0,2.2,0.3,3.1,0.9
		c0.7,0.5,1.4,1.5,2.3,3.1l6.8,12.3h14.4L426.5,33C426.2,32.5,425.6,31.6,424.7,30.6z M415.7,19c-0.5,0.7-1.2,1.1-2.1,1.3
		c-1.7,0.4-2.8,0.5-3.4,0.5h-5.4v-8.2h5.6c2.3,0,3.9,0.3,4.8,1c0.8,0.7,1.3,1.7,1.3,3C416.5,17.6,416.3,18.3,415.7,19z"/>
	<path class="st0" d="M455.6,3.9c-6.7,0-11.9,1.8-15.7,5.5c-3.8,3.6-5.6,8.7-5.6,15.3c0,4.7,1,8.6,2.8,11.7c1.9,3.1,4.4,5.4,7.4,6.8
		c3.1,1.4,6.9,2.2,11.6,2.2c4.6,0,8.4-0.8,11.5-2.5s5.4-4,7-7s2.4-6.8,2.4-11.5c0-6.5-1.9-11.5-5.6-15
		C467.7,5.7,462.4,3.9,455.6,3.9z M462,33.5c-1.5,1.7-3.6,2.6-6.4,2.6c-2.7,0-4.8-0.9-6.3-2.6c-1.5-1.8-2.3-4.7-2.3-8.7
		c0-4.1,0.8-7,2.3-8.8c1.6-1.8,3.6-2.6,6.2-2.6c2.7,0,4.8,0.9,6.4,2.6s2.4,4.5,2.4,8.3C464.2,28.6,463.5,31.8,462,33.5z"/>
	<path class="st0" d="M510.7,29c0,2.2-0.6,3.9-1.9,5.1c-1.3,1.2-3,1.8-5.2,1.8s-3.9-0.6-5.2-1.8c-1.2-1.2-1.9-2.9-1.9-5.1V4.6h-12.7
		v23.9c0,2,0.4,4.2,1.2,6.8c0.5,1.6,1.4,3.1,2.7,4.6c1.3,1.5,2.8,2.6,4.4,3.5c1.6,0.8,3.6,1.4,6,1.6c2.4,0.3,4.6,0.4,6.6,0.4
		c3.5,0,6.4-0.4,8.9-1.3c1.8-0.6,3.5-1.7,5.1-3.3s2.8-3.4,3.6-5.5s1.1-4.3,1.1-6.7v-24h-12.7L510.7,29L510.7,29z"/>
	<path class="st0" d="M563.4,7.8c-2.3-2.1-5.8-3.2-10.4-3.2h-21.2v40.1h12.8V29.8h7c5.1,0,9-1.1,11.5-3.4s3.8-5.4,3.8-9.5
		C566.8,13,565.7,9.9,563.4,7.8z M552.9,20.4c-1,0.8-2.7,1.2-5.2,1.2h-3.1v-8.9h3.6c2.4,0,4,0.4,4.9,1.3c0.9,0.9,1.3,1.9,1.3,3.2
		S553.9,19.6,552.9,20.4z"/>
</g>
</svg>
