<?xml version="1.0" standalone="no"?>
<!DOCTYPE svg PUBLIC "-//W3C//DTD SVG 20010904//EN"
 "http://www.w3.org/TR/2001/REC-SVG-20010904/DTD/svg10.dtd">
<svg version="1.0" xmlns="http://www.w3.org/2000/svg"
 width="1924.000000pt" height="1100.000000pt" viewBox="0 0 1924.000000 1100.000000"
 preserveAspectRatio="xMidYMid meet">

<g transform="translate(0.000000,1100.000000) scale(0.100000,-0.100000)"
fill="#000000" stroke="none">
<path d="M0 5500 l0 -5500 500 0 c482 0 500 1 500 19 0 47 53 50 89 5 l19 -24
694 0 694 0 31 63 c97 196 281 333 401 298 53 -16 251 -132 277 -163 29 -35
45 -87 45 -150 l0 -48 322 0 c177 0 319 2 317 4 -2 2 -91 54 -197 115 -188
110 -194 112 -218 97 l-24 -16 0 55 c0 51 10 69 25 45 3 -5 12 -10 20 -10 14
0 1109 633 1133 655 11 10 -97 76 -550 338 -310 179 -570 328 -578 331 -8 3
-123 -58 -260 -138 -189 -110 -249 -141 -263 -134 -9 5 -17 12 -17 17 0 5 108
71 240 147 132 77 240 141 239 144 0 8 -1140 663 -1153 663 -6 0 -175 -96
-375 -212 -200 -117 -370 -215 -377 -218 -10 -3 -14 3 -14 18 0 21 47 52 360
233 198 115 360 210 360 211 0 1 -139 82 -310 180 -265 153 -310 182 -310 202
0 13 2 23 5 23 3 0 150 -84 328 -186 177 -103 327 -187 333 -187 7 0 159 85
338 189 l325 189 6 40 c4 22 5 69 3 105 l-3 64 -80 47 c-72 42 -545 314 -652
376 l-43 24 0 -406 c0 -317 -3 -405 -12 -405 -7 0 -26 9 -43 20 l-30 20 -5
412 -5 412 -57 34 -57 34 -83 -50 c-131 -77 -127 -75 -121 -49 9 34 21 45 90
83 34 20 63 37 63 39 0 2 -25 19 -55 37 l-55 33 0 66 0 67 55 31 c30 17 62 31
71 31 9 0 91 -45 183 -99 91 -54 301 -177 466 -273 699 -406 3860 -2237 4195
-2430 201 -116 379 -219 395 -229 17 -10 64 -37 105 -60 41 -24 156 -91 255
-149 99 -59 268 -158 375 -220 107 -62 290 -168 406 -236 l211 -124 341 2 341
3 -569 329 -570 328 0 422 0 421 50 28 c28 16 50 32 50 36 0 36 -76 204 -125
275 -14 21 -25 40 -23 42 2 1 72 -38 157 -87 84 -49 157 -89 161 -89 6 0 1087
625 1097 634 1 0 -86 52 -193 114 -174 101 -196 111 -217 101 -12 -7 -214
-124 -449 -261 -235 -136 -432 -248 -438 -248 -6 0 -179 97 -385 216 l-374
215 -65 -36 c-54 -30 -69 -34 -86 -25 -11 6 -20 14 -20 18 0 4 25 21 55 37 30
17 55 33 55 36 0 3 -133 82 -295 175 l-294 169 -3 322 -3 321 -334 -194 c-184
-107 -339 -194 -346 -194 -6 0 -19 6 -29 13 -15 11 28 39 346 224 l363 211 5
73 5 74 80 47 c44 26 81 51 82 55 2 8 -608 363 -624 363 -6 0 -9 -120 -9 -300
l1 -300 -42 -26 -43 -25 0 405 c0 223 -3 406 -7 406 -12 -1 -128 -66 -486
-275 l-327 -190 0 -183 0 -183 -42 23 -43 23 -5 131 -5 130 -112 -63 -113 -62
-97 56 c-54 31 -104 62 -111 68 -10 9 243 161 1225 732 1334 775 1657 964
1856 1080 70 41 127 81 127 88 0 7 41 36 91 65 49 29 89 53 87 55 -2 1 -261
152 -575 334 -325 187 -579 328 -587 325 -20 -8 -56 13 -51 29 3 7 -90 67
-246 157 -222 128 -249 146 -233 157 10 7 21 13 25 13 4 0 121 -65 260 -145
139 -80 258 -144 265 -141 7 3 205 117 441 254 235 137 436 253 446 259 16 8
0 21 -110 84 l-128 75 -3 104 c-3 101 -2 106 22 125 l24 20 -346 200 c-190
110 -351 201 -357 203 -7 2 -46 -18 -89 -43 -42 -25 -79 -45 -81 -45 -3 0 -5
11 -5 25 0 19 12 31 60 57 33 18 60 35 60 38 0 3 -27 20 -60 38 -49 27 -60 37
-60 58 0 14 3 24 8 22 4 -1 42 -22 84 -46 73 -41 79 -42 105 -28 30 15 1116
646 1121 650 4 5 -1144 666 -1156 666 -6 0 -45 -20 -86 -45 -42 -25 -79 -45
-81 -45 -3 0 -5 11 -5 24 0 20 12 31 60 58 33 18 60 38 60 45 0 6 15 15 33 18
17 4 37 11 42 15 14 10 221 83 212 74 -3 -4 -48 -31 -97 -59 l-91 -53 33 -20
c117 -71 1115 -645 1123 -645 12 0 771 438 796 460 9 8 28 66 44 141 15 70 34
145 42 166 11 32 11 42 1 51 -7 7 -125 76 -263 155 -137 79 -252 144 -254 146
-1 1 12 6 31 9 30 6 58 -8 276 -134 l243 -141 49 52 48 53 36 -19 c20 -11 36
-22 36 -26 0 -4 -10 -16 -23 -28 -54 -50 -96 -160 -146 -382 -27 -118 -93
-394 -145 -612 -53 -218 -96 -400 -96 -403 0 -4 17 15 38 42 96 121 215 200
316 210 43 4 60 0 108 -24 64 -33 61 -35 73 50 3 26 8 47 11 47 3 0 18 -7 34
-15 l29 -15 10 37 c29 107 141 598 139 605 -2 4 -88 59 -192 121 -208 124
-214 130 -201 212 12 84 102 185 164 185 14 0 52 -16 84 -35 66 -40 67 -40 67
-21 0 7 192 123 435 262 421 240 435 249 436 278 1 17 1 34 0 38 0 4 14 18 32
31 37 28 260 157 271 157 22 0 254 -143 264 -162 6 -13 13 -50 14 -82 l3 -59
349 -198 c343 -196 348 -198 377 -184 15 8 32 15 38 15 21 0 233 -135 240
-152 6 -18 8 -18 29 2 32 30 190 110 218 110 40 0 36 -17 -12 -45 -52 -30 -54
-27 43 -81 57 -31 66 -53 32 -75 -20 -14 -11 -20 151 -113 l171 -98 -3 -40
c-3 -35 -8 -43 -43 -63 l-40 -24 -55 33 c-30 18 -95 54 -145 81 -49 26 -101
55 -115 65 -14 9 -35 22 -47 29 l-23 12 0 -175 0 -174 92 -52 c50 -29 97 -58
104 -65 18 -18 171 -105 184 -105 6 0 29 9 50 20 l40 20 0 -35 c0 -30 -6 -38
-40 -60 -22 -14 -41 -25 -44 -25 -2 0 -54 30 -117 66 l-113 66 -36 -21 -37
-21 -100 57 -99 57 -40 100 c-39 101 -39 101 -39 244 l0 144 -37 21 c-36 22
-36 22 -58 2 -26 -24 -42 -59 -34 -79 3 -7 23 -22 45 -31 22 -10 42 -22 45
-26 6 -10 -129 -89 -151 -89 -9 0 -47 18 -84 40 l-68 41 -484 -282 c-266 -154
-488 -284 -492 -289 -7 -6 1130 -670 1147 -670 3 0 263 149 577 332 469 272
569 333 556 343 -9 6 -167 98 -351 205 -289 167 -336 197 -336 217 0 13 2 23
5 23 2 0 172 -96 376 -214 l371 -214 106 62 c305 178 579 336 592 341 9 3 23
0 33 -7 15 -12 -24 -37 -319 -208 -185 -107 -343 -200 -351 -206 -12 -8 15
-27 131 -94 136 -78 145 -84 126 -97 -19 -13 -33 -7 -170 71 l-149 86 -571
-332 c-313 -183 -570 -335 -570 -338 0 -10 1143 -665 1154 -662 6 2 124 69
261 148 l250 145 -3 251 c-3 231 -2 251 15 264 10 7 25 13 33 13 8 0 157 -82
330 -182 l315 -183 3 -234 c2 -206 0 -235 -14 -252 -10 -10 -26 -18 -36 -18
-11 0 -139 70 -287 155 -147 85 -274 157 -283 160 -10 4 -110 -48 -270 -141
-139 -81 -257 -150 -261 -154 -5 -4 251 -157 568 -340 504 -291 579 -331 598
-322 12 6 200 114 417 240 309 180 399 228 413 221 9 -6 17 -13 17 -17 0 -4
-182 -113 -405 -242 -223 -129 -405 -238 -405 -241 0 -3 258 -155 574 -338
l574 -331 571 331 c314 182 571 334 571 338 0 4 -27 22 -60 41 -64 36 -70 44
-44 58 12 7 36 -1 87 -31 l71 -41 58 33 c47 26 62 30 74 21 21 -18 18 -23 -31
-50 -25 -14 -44 -28 -43 -32 2 -5 57 -39 123 -77 73 -41 131 -82 149 -104 16
-21 28 -39 25 -41 -2 -3 -82 41 -178 96 -131 76 -178 98 -190 91 -9 -5 -267
-155 -574 -333 -307 -178 -554 -327 -550 -331 8 -8 1130 -658 1142 -662 4 -1
183 101 400 226 365 212 394 227 406 210 15 -20 46 0 -494 -313 -250 -145
-262 -154 -240 -166 13 -7 121 -69 239 -137 187 -108 216 -128 221 -153 4 -16
7 -244 8 -506 l1 -477 -72 41 c-40 23 -77 41 -83 41 -5 0 -48 -23 -95 -51
l-85 -50 1 -64 c2 -88 25 -124 114 -174 38 -21 70 -41 70 -44 0 -3 -8 -10 -18
-16 -15 -10 -30 -5 -82 27 -36 21 -67 38 -70 39 -10 0 -33 -92 -32 -124 2 -43
-36 -87 -84 -101 -35 -9 -39 -14 -42 -47 -2 -28 1 -38 16 -42 31 -10 112 -65
112 -76 0 -5 -12 -10 -27 -10 -72 -1 -190 -87 -255 -187 -113 -171 -114 -288
-6 -512 44 -91 61 -116 141 -196 82 -83 104 -98 198 -144 90 -43 108 -55 113
-78 3 -16 9 -157 13 -315 3 -159 9 -288 12 -288 3 0 138 75 298 167 l293 168
0 619 0 620 33 85 32 86 3 -683 c1 -375 4 -682 6 -682 2 0 52 27 110 61 l106
61 0 712 0 712 -65 37 c-36 21 -65 39 -65 42 0 18 56 153 75 181 29 42 40 105
31 177 -10 77 -22 89 -31 30 -10 -76 -14 -79 -81 -65 -31 6 -73 20 -93 31 -34
17 -36 21 -33 62 2 24 9 66 17 93 16 54 14 66 -10 46 -13 -11 -15 -6 -15 41
l0 53 28 -27 27 -26 34 28 35 29 -54 52 c-49 48 -155 110 -187 110 -8 0 -13
13 -13 33 0 32 5 35 150 119 l149 87 21 -34 c58 -94 167 -148 300 -149 115 -1
187 24 260 90 l38 35 114 -67 c62 -36 122 -72 134 -79 19 -12 37 -4 185 82
l164 95 35 -19 c19 -11 61 -34 93 -52 l57 -33 0 3301 0 3301 -7025 0 -7025 0
0 -247 c0 -137 -4 -253 -8 -259 -7 -11 -22 -20 -327 -194 -99 -57 -213 -123
-252 -147 -64 -38 -76 -42 -95 -32 -13 7 -80 45 -150 86 l-128 75 0 122 0 121
278 161 c152 89 334 195 405 235 l127 74 -340 3 -341 2 -65 -36 -64 -36 0 36
0 36 -497 0 -498 0 78 -46 c43 -25 80 -50 82 -57 3 -7 2 -113 -3 -236 l-7
-224 -190 -110 c-440 -254 -747 -428 -751 -425 -8 8 -15 784 -7 794 4 6 116
73 248 149 132 76 244 142 249 146 6 5 -652 9 -1462 9 l-1472 0 0 -5500z
m17017 5149 c32 -17 90 -51 128 -75 71 -43 71 -43 67 -84 -4 -37 -6 -40 -35
-40 -109 0 -249 -159 -278 -315 -34 -186 129 -272 274 -145 l37 32 0 -49 c0
-42 -3 -51 -23 -60 -20 -9 -688 -395 -737 -425 -13 -8 -46 6 -146 64 l-129 74
-3 245 -2 246 -41 22 c-55 31 -73 75 -66 159 10 126 112 272 214 306 60 20 71
17 211 -62 l112 -64 173 101 c94 55 175 100 179 101 4 0 34 -14 65 -31z m1610
-490 l453 -262 0 -41 -1 -41 -121 -70 c-67 -38 -126 -71 -130 -73 -4 -2 -8 18
-8 44 0 72 -20 125 -65 169 -46 47 -85 60 -211 75 -132 14 -315 -11 -328 -46
-9 -24 -6 -85 8 -129 12 -40 12 -40 61 -40 l49 0 8 -42 c3 -23 14 -53 23 -67
16 -24 18 -24 40 -10 33 21 30 21 54 0 24 -22 26 -48 10 -96 -11 -29 -9 -38
12 -76 24 -46 24 -48 -8 -148 -6 -18 -2 -19 47 -13 28 4 68 15 87 27 19 11 36
20 39 20 2 0 4 -17 4 -38 l0 -37 62 -12 c88 -17 94 -27 64 -94 -44 -95 -60
-175 -60 -299 -1 -188 48 -304 171 -405 l60 -50 7 -195 c4 -107 9 -244 11
-303 3 -83 0 -118 -12 -148 -14 -35 -14 -105 -6 -667 10 -626 10 -627 -10
-650 -34 -37 -118 -56 -185 -43 -62 12 -124 41 -161 74 l-24 22 6 -87 5 -87
-41 -28 c-37 -25 -48 -28 -126 -28 -73 0 -93 4 -136 27 -27 14 -62 39 -76 55
-59 65 -56 47 -63 479 -12 748 -14 979 -7 1112 l6 133 67 29 c149 62 272 181
347 334 95 193 96 331 5 474 -69 107 -185 192 -262 192 -31 0 -33 2 -21 16 7
9 37 30 66 46 53 30 53 30 53 78 0 46 -2 49 -34 60 -18 6 -42 20 -51 30 -10
11 -25 20 -34 20 -9 0 -52 18 -96 40 l-79 41 -12 -33 c-18 -54 -64 -140 -95
-179 -16 -20 -29 -41 -29 -46 0 -4 -119 -78 -265 -163 -146 -85 -265 -157
-265 -161 0 -4 14 -19 32 -34 l32 -27 -27 -52 c-15 -29 -40 -67 -55 -85 l-27
-32 -55 41 c-30 23 -64 51 -76 61 l-21 20 -869 -507 c-478 -278 -890 -519
-916 -536 l-47 -29 -456 263 -455 263 2 45 c3 43 4 45 73 85 39 23 502 293
1029 600 l959 559 61 -34 c77 -43 136 -45 216 -9 105 49 219 180 270 309 12
30 27 61 33 67 15 16 1019 602 1031 603 5 0 214 -118 463 -261z m-1417 146 l0
-85 -35 0 -35 0 0 79 c0 84 2 86 53 90 15 1 17 -9 17 -84z m-140 -17 c0 -30
-1 -31 -17 -16 -13 14 -14 20 -3 32 18 22 20 20 20 -16z m-10 -92 c0 -2 -23
-32 -51 -67 l-52 -64 6 46 c4 26 14 65 23 88 l16 41 29 -21 c16 -11 29 -22 29
-23z m150 -47 c0 -24 -65 -103 -108 -130 -43 -27 -118 -41 -110 -20 2 5 31 43
66 85 61 74 63 76 107 76 25 0 45 -5 45 -11z m-12090 -150 c17 -25 37 -66 45
-91 l13 -45 -34 -18 c-32 -17 -34 -21 -34 -69 0 -64 4 -58 -228 -321 l-183
-206 58 -68 c32 -36 161 -187 287 -334 l229 -267 56 32 c31 17 63 36 72 42 13
7 41 -4 119 -48 l102 -58 47 46 c28 28 56 46 71 47 21 1 22 2 5 6 -11 3 -29
11 -39 19 -18 13 -18 13 6 24 21 10 31 7 71 -17 26 -15 47 -35 47 -44 0 -8 12
-26 26 -40 53 -49 124 -233 124 -319 0 -41 -27 -103 -62 -145 -44 -52 -52 -77
-59 -186 -8 -123 -26 -168 -90 -223 -23 -19 -60 -41 -83 -49 -40 -13 -41 -14
-46 -69 -7 -74 -28 -98 -87 -98 -24 0 -57 7 -73 15 l-30 16 0 185 0 186 -25
-16 c-77 -50 -147 -20 -280 119 l-100 104 -167 -97 c-92 -53 -168 -99 -168
-102 0 -3 180 -108 400 -235 220 -126 400 -233 400 -237 0 -4 -10 -10 -23 -13
-18 -5 -111 45 -405 215 -210 121 -393 225 -405 231 -23 10 -60 -7 -237 -114
l-35 -21 20 23 c31 36 214 181 228 181 12 0 44 18 265 147 l93 55 -392 396
c-254 257 -407 405 -435 419 -161 84 -275 340 -212 477 11 25 498 422 691 563
24 18 39 21 74 17 30 -3 50 0 65 10 35 25 53 19 106 -32 48 -47 87 -108 102
-163 7 -24 4 -29 -26 -45 -32 -17 -34 -22 -34 -69 0 -59 -13 -82 -105 -185
-77 -86 -442 -506 -465 -534 -14 -18 -14 -19 7 -8 12 7 131 136 264 288 198
226 250 280 286 295 24 10 55 31 68 45 24 26 25 32 25 169 0 78 3 176 6 218
l7 76 22 -17 c13 -9 37 -38 55 -63z m-1724 -5 c-3 -26 -6 -133 -6 -238 l0
-191 -62 -35 c-34 -19 -87 -49 -117 -66 -31 -16 -152 -86 -269 -153 l-212
-123 -148 85 -147 85 -3 64 -3 64 148 86 c81 47 297 171 478 276 182 106 334
192 339 192 5 0 6 -21 2 -46z m-137 -849 c33 -38 69 -102 82 -148 7 -25 4 -30
-27 -49 -32 -19 -34 -23 -34 -73 0 -63 6 -54 -232 -324 l-178 -201 252 -293
c138 -160 267 -311 287 -333 l37 -42 64 39 c36 21 71 38 78 39 8 0 57 -25 109
-56 l94 -55 52 39 c145 110 238 117 289 19 20 -37 23 -60 26 -197 3 -127 0
-175 -17 -265 -23 -118 -68 -302 -77 -317 -9 -14 -4 -11 420 234 209 121 389
224 400 230 18 7 62 -14 256 -124 195 -111 236 -138 238 -158 5 -28 28 -49 58
-50 34 0 44 20 44 93 0 62 4 76 36 131 58 97 78 105 132 55 31 -29 32 -32 32
-115 0 -46 3 -84 6 -84 4 0 33 16 66 36 l61 37 -24 18 c-13 10 -32 21 -41 25
-11 3 -18 15 -18 30 0 30 3 30 57 -2 43 -25 44 -27 41 -72 -3 -45 -4 -46 -72
-86 -52 -31 -71 -48 -77 -70 -4 -15 -16 -37 -26 -48 -15 -17 -16 -21 -3 -28 8
-5 157 -90 330 -188 l315 -180 3 -134 c2 -118 0 -136 -15 -150 -15 -12 -1304
-760 -2683 -1556 -157 -90 -346 -200 -420 -243 -75 -43 -142 -79 -149 -79 -7
0 -122 62 -256 138 l-244 137 -1 115 0 115 -68 37 c-99 54 -105 60 -90 80 12
15 19 14 78 -22 36 -22 68 -39 73 -40 4 0 7 54 7 121 l0 121 -45 -26 c-25 -15
-45 -24 -45 -21 0 21 35 67 60 80 l30 16 0 113 c0 62 3 228 7 369 l6 256 539
311 538 312 0 168 0 169 -41 -19 c-39 -17 -65 -18 -114 -3 -19 5 -655 630
-655 643 0 16 -421 423 -455 441 -52 27 -110 83 -146 138 l-29 45 0 171 0 171
33 24 c17 13 142 112 277 219 134 108 254 203 266 211 12 8 41 30 65 48 38 29
50 33 84 29 25 -4 49 0 65 8 40 23 58 18 108 -29 47 -44 85 -106 102 -165 7
-26 5 -31 -26 -47 -32 -17 -34 -22 -34 -69 -1 -27 -6 -59 -13 -71 -7 -11 -131
-157 -277 -323 -145 -167 -271 -312 -279 -323 -13 -19 -12 -19 7 -9 12 6 130
135 263 287 189 216 251 280 283 294 23 10 53 31 68 47 l27 28 7 218 c4 119
10 217 15 217 4 0 21 -16 38 -35z m13614 -1626 c81 -99 147 -188 147 -198 0
-10 -10 -27 -22 -38 -41 -37 -587 -345 -605 -341 -10 2 -19 12 -21 23 -2 20
265 668 294 712 31 48 51 32 207 -158z m-9958 -1213 c18 -8 38 -23 44 -34 6
-12 11 -76 11 -149 0 -144 -7 -164 -66 -189 -62 -26 -136 -14 -181 28 -22 20
-23 29 -23 158 0 93 4 141 13 153 34 45 134 61 202 33z m-708 -356 c30 -13 44
-27 49 -46 11 -41 -5 -275 -19 -292 -30 -37 -125 -54 -181 -32 -14 5 -34 18
-46 30 -18 18 -20 32 -20 160 0 139 0 141 26 165 42 39 125 45 191 15z m-786
-440 c69 -19 74 -33 71 -193 -3 -135 -5 -143 -28 -167 -20 -20 -36 -25 -91
-28 -59 -3 -73 0 -103 20 l-35 24 -3 146 c-2 141 -2 148 20 168 39 36 105 48
169 30z m-679 -366 c15 -8 30 -19 34 -26 4 -7 7 -75 5 -153 -2 -131 -4 -141
-25 -164 -45 -45 -164 -45 -213 1 -22 20 -23 29 -23 164 0 135 1 144 22 164
13 11 34 23 48 26 14 3 30 7 35 9 17 6 89 -7 117 -21z m-726 -429 c17 -3 41
-15 53 -26 19 -18 21 -30 21 -160 l0 -141 -30 -28 c-47 -44 -142 -47 -205 -6
-23 15 -24 20 -27 153 -3 153 1 176 34 194 27 15 87 28 108 23 8 -1 29 -5 46
-9z m-675 -368 l34 -23 3 -142 3 -143 -29 -29 c-50 -50 -172 -50 -218 1 -17
19 -19 38 -19 158 0 75 3 144 8 154 23 49 159 64 218 24z m14223 -153 c13 -5
16 -25 16 -115 0 -102 -1 -109 -20 -109 -19 0 -20 7 -20 115 0 63 2 115 4 115
2 0 11 -3 20 -6z m-15424 -366 c0 -9 -4 -19 -8 -22 -11 -7 -217 111 -216 124
1 5 2 16 3 24 2 21 220 -104 221 -126z m15474 53 c3 -5 -1 -26 -10 -47 -9 -22
-20 -50 -25 -63 -8 -19 -12 -21 -24 -11 -10 8 -15 31 -15 71 l0 59 34 0 c19 0
37 -4 40 -9z m-13392 -41 c77 -22 80 -29 79 -184 -1 -76 -6 -147 -12 -157 -34
-64 -219 -65 -243 -2 -3 7 -6 76 -7 154 -1 157 0 160 67 184 47 17 68 18 116
5z m13221 -201 c53 -14 72 -46 56 -98 -13 -45 -54 -87 -150 -155 l-67 -46 -24
32 c-28 36 -78 132 -78 147 0 13 90 80 145 109 46 24 65 26 118 11z m-12346
-284 c21 -9 43 -23 49 -33 6 -11 8 -71 4 -161 -5 -140 -6 -144 -31 -163 -52
-39 -163 -35 -205 7 -23 23 -24 30 -24 160 0 78 5 145 11 156 24 45 125 63
196 34z m944 -538 l34 -23 0 -146 c0 -130 -2 -148 -19 -167 -46 -51 -168 -51
-218 -1 -28 28 -28 29 -28 160 0 75 5 140 11 151 27 51 160 67 220 26z m11177
-172 c-2 -21 -22 -37 -95 -80 l-93 -54 0 27 c0 23 12 34 88 78 48 29 91 52 95
53 5 1 7 -10 5 -24z m-10419 -208 c62 -22 68 -43 62 -202 l-6 -139 -34 -23
c-48 -32 -135 -32 -182 0 l-34 23 0 154 0 155 45 23 c49 24 97 27 149 9z
m10336 -317 c71 -42 85 -55 85 -76 0 -14 -3 -23 -7 -21 -163 92 -173 99 -173
123 0 13 2 24 5 24 2 0 43 -23 90 -50z m-15545 -740 c0 -16 -37 -21 -64 -9
-19 9 -26 20 -26 40 l0 28 45 -26 c25 -13 45 -29 45 -33z m5915 -630 c26 -16
31 -25 27 -45 -2 -14 -6 -25 -8 -25 -3 0 -29 14 -60 32 -55 31 -56 31 -33 44
32 18 36 17 74 -6z"/>
<path d="M18662 9158 c-16 -20 -91 -41 -153 -42 -27 -1 -49 -2 -49 -3 0 -10
156 -84 172 -81 26 3 51 64 46 112 -3 25 -5 27 -16 14z"/>
<path d="M5734 8620 c-12 -5 -39 -25 -59 -46 -43 -43 -49 -35 75 -103 l80 -44
-2 -254 -3 -255 -92 -51 -92 -52 -1 -67 c0 -40 4 -68 10 -68 25 0 81 31 118
64 49 44 72 106 72 190 0 76 14 128 48 179 80 118 85 142 57 252 -46 175 -137
285 -211 255z"/>
<path d="M5182 8180 c-37 -27 -42 -35 -42 -70 0 -83 63 -170 123 -170 31 0 95
31 109 54 28 42 -14 154 -72 194 -44 29 -69 28 -118 -8z"/>
<path d="M3944 7724 c-27 -14 -67 -40 -89 -58 l-39 -33 25 -15 c13 -8 54 -32
92 -52 l67 -37 0 -253 0 -253 -35 -19 c-20 -10 -43 -29 -51 -42 -8 -12 -20
-21 -27 -20 -7 1 -27 -3 -44 -11 -33 -13 -33 -14 -33 -86 l0 -73 90 51 c49 29
90 55 90 59 0 4 -9 10 -21 13 -20 7 -20 8 -3 26 16 18 19 18 41 4 27 -18 21
-27 66 105 33 98 67 337 68 475 0 218 -63 289 -197 219z"/>
<path d="M3375 7298 c-47 -25 -65 -51 -65 -90 0 -74 71 -168 127 -168 25 0 91
34 105 54 14 20 8 87 -12 125 -38 75 -103 108 -155 79z"/>
<path d="M3713 6603 c-27 -4 -33 -9 -33 -29 0 -17 -10 -30 -31 -43 -23 -14
-52 -56 -105 -153 -39 -73 -69 -136 -66 -140 9 -9 189 -98 199 -98 5 0 14 9
21 21 12 18 11 23 -5 34 -62 45 -62 33 1 136 32 52 59 95 61 97 1 1 10 0 19
-4 14 -6 12 -14 -19 -71 -20 -36 -35 -66 -33 -68 17 -13 97 -55 106 -55 6 0
31 34 56 75 25 42 53 86 61 99 15 23 14 24 -95 96 -91 59 -110 75 -105 91 4
10 5 18 3 17 -2 0 -18 -3 -35 -5z"/>
<path d="M16687 7648 c-3 -7 -66 -159 -141 -337 -75 -178 -135 -325 -134 -327
4 -4 192 108 199 118 3 6 10 9 15 9 16 -1 346 192 351 205 5 13 -261 344 -277
344 -4 0 -10 -6 -13 -12z m67 -127 c-8 -27 -21 -68 -29 -91 -20 -58 -19 -62
15 -82 l31 -18 -71 -106 c-40 -58 -74 -104 -76 -101 -3 2 9 40 26 83 30 78 29
93 -7 94 -29 0 -20 28 48 145 39 69 73 125 75 125 1 0 -4 -22 -12 -49z"/>
<path d="M10835 9680 c-59 -35 -82 -37 -127 -11 l-33 19 -260 -149 c-326 -188
-294 -167 -272 -180 26 -15 57 -87 57 -132 0 -21 -9 -97 -20 -169 -12 -72 -17
-135 -13 -139 4 -4 114 -69 243 -144 145 -84 243 -134 255 -132 11 2 236 129
501 283 479 279 481 280 457 297 -17 13 -23 28 -23 56 l0 39 -344 196 c-189
108 -350 196 -358 196 -7 0 -35 -14 -63 -30z"/>
<path d="M9925 9396 c-27 -12 -56 -30 -63 -39 -12 -14 -8 -18 26 -36 36 -18
41 -19 53 -5 17 21 76 50 118 59 l35 7 -35 19 c-45 24 -74 23 -134 -5z"/>
<path d="M12220 9370 c0 -23 13 -26 29 -6 9 11 8 15 -5 20 -23 9 -24 8 -24
-14z"/>
<path d="M8681 8826 c-200 -116 -363 -215 -363 -220 0 -13 546 -327 550 -316
7 18 180 745 179 746 -1 1 -166 -93 -366 -210z"/>
<path d="M10147 8838 c-15 -83 -78 -540 -75 -543 3 -2 525 298 534 308 4 4
-413 250 -447 265 -4 2 -9 -12 -12 -30z"/>
<path d="M12220 8810 c0 -12 15 -29 40 -45 44 -28 60 -31 78 -13 10 10 0 19
-45 45 -68 38 -73 39 -73 13z"/>
<path d="M7683 8247 c-315 -183 -572 -334 -572 -337 0 -3 159 -96 354 -208
l354 -203 498 290 498 289 17 58 c29 104 50 83 -274 270 -161 93 -294 170
-297 171 -4 1 -263 -147 -578 -330z"/>
<path d="M10360 8406 c-309 -181 -307 -179 -309 -251 -1 -30 9 -36 525 -335
290 -167 534 -304 543 -304 16 -1 691 384 691 394 0 4 -1133 662 -1149 667 -3
1 -139 -76 -301 -171z"/>
<path d="M9714 7949 c-118 -35 -229 -251 -184 -360 31 -73 119 -69 201 8 157
147 145 400 -17 352z"/>
<path d="M13721 7882 c20 -18 36 -45 44 -77 8 -28 14 -40 14 -28 1 12 -4 34
-10 50 -11 29 -57 83 -71 83 -5 0 6 -13 23 -28z"/>
<path d="M11590 7724 c-146 -85 -301 -176 -345 -201 l-79 -46 32 -15 32 -16 0
-110 0 -111 -130 -75 c-72 -41 -130 -77 -130 -80 1 -9 899 -522 907 -517 51
26 1142 661 1140 663 -9 9 -1149 664 -1155 664 -4 -1 -126 -71 -272 -156z"/>
<path d="M13650 7692 c0 -33 32 -67 55 -59 21 9 19 43 -5 67 -29 29 -50 26
-50 -8z"/>
<path d="M14062 7688 c-18 -18 -14 -79 8 -115 29 -48 65 -69 96 -55 31 15 38
33 29 79 -13 69 -97 127 -133 91z"/>
<path d="M13795 7620 c-8 -27 19 -70 44 -70 28 0 35 30 13 60 -25 32 -48 37
-57 10z"/>
<path d="M13647 7606 c-8 -21 17 -61 41 -64 30 -4 38 22 18 53 -18 27 -51 33
-59 11z"/>
<path d="M13916 7554 c-10 -27 16 -69 44 -69 32 0 36 24 10 58 -24 30 -45 35
-54 11z"/>
<path d="M13794 7526 c-6 -16 12 -56 30 -68 31 -21 54 9 34 45 -19 38 -54 50
-64 23z"/>
<path d="M14065 7469 c-9 -14 13 -66 32 -73 31 -12 44 24 23 65 -11 20 -45 26
-55 8z"/>
<path d="M13915 7460 c-9 -15 2 -44 26 -66 18 -16 21 -16 35 -2 14 14 14 20 2
44 -13 30 -51 44 -63 24z"/>
<path d="M14063 7373 c-9 -23 19 -67 45 -71 18 -3 22 1 22 26 0 47 -53 83 -67
45z"/>
<path d="M12493 6853 c-310 -181 -563 -331 -563 -334 0 -9 1141 -664 1152
-661 19 5 1138 657 1138 662 -1 8 -1128 655 -1147 658 -10 1 -271 -145 -580
-325z"/>
<path d="M7581 6790 c-245 -143 -448 -263 -452 -267 -6 -6 1104 -655 1138
-665 9 -3 876 494 900 516 10 9 -120 88 -558 341 -314 182 -574 331 -578 332
-3 1 -206 -115 -450 -257z"/>
<path d="M10343 6711 c-309 -180 -565 -329 -568 -332 -2 -3 88 -58 200 -123
113 -65 207 -121 210 -125 2 -5 -6 -13 -19 -19 -21 -9 -48 3 -237 112 l-212
123 -111 -65 c-61 -36 -116 -65 -122 -65 -6 0 -63 30 -127 66 -64 37 -119 67
-122 67 -19 0 -904 -525 -897 -532 4 -4 262 -155 572 -333 535 -309 565 -325
592 -314 l28 11 0 168 0 168 -120 69 -119 68 -1 57 0 58 48 30 c26 16 53 30
60 30 10 0 330 -184 512 -295 30 -18 56 -32 57 -31 1 1 -5 38 -14 81 -27 135
4 233 87 275 50 25 70 25 131 -2 48 -20 52 -20 85 -5 l34 17 0 -34 c0 -42 -3
-40 225 -171 l169 -98 38 22 38 22 0 -44 c0 -42 2 -44 59 -77 l59 -35 -205
-119 c-112 -65 -201 -122 -196 -127 4 -4 193 -114 418 -245 226 -130 721 -417
1100 -637 380 -220 762 -441 850 -492 88 -51 218 -127 290 -168 71 -42 131
-74 133 -73 2 2 -4 31 -12 64 -20 77 -21 192 -1 239 20 48 41 71 88 95 38 19
38 19 81 -3 42 -20 46 -21 76 -5 18 9 35 16 37 16 1 0 3 -17 3 -38 0 -32 5
-41 31 -56 94 -55 201 -204 239 -334 26 -84 25 -207 -1 -258 -18 -35 -28 -26
128 -110 159 -86 144 -71 141 -138 -3 -59 -4 -60 -48 -87 -25 -15 -51 -28 -57
-28 -7 -1 -61 28 -120 63 l-108 64 -3 -359 c-1 -197 -6 -359 -10 -359 -4 0
-22 9 -39 20 l-33 20 0 142 -1 143 -283 163 -284 162 -568 -330 c-313 -182
-570 -332 -571 -334 -2 -1 256 -152 572 -334 l575 -332 563 326 c309 179 566
329 570 334 5 4 -88 63 -207 131 -198 114 -216 126 -216 152 0 15 2 27 5 27 3
0 111 -61 240 -136 129 -74 241 -134 248 -132 18 4 1136 652 1136 658 1 3
-191 115 -425 249 -234 135 -433 250 -442 257 -15 11 -14 13 9 24 24 11 46 0
302 -148 l277 -160 0 248 0 248 36 21 c19 12 37 21 40 21 2 0 4 -128 4 -285 0
-218 -3 -285 -12 -285 -7 0 50 -36 127 -81 102 -59 144 -78 155 -71 8 5 199
116 424 246 403 233 426 244 426 201 0 -5 -182 -116 -405 -245 -223 -129 -405
-237 -405 -240 0 -3 139 -85 309 -183 287 -165 308 -179 303 -202 -3 -19 -8
-23 -21 -16 -9 5 -157 90 -329 190 -173 100 -315 181 -318 181 -4 0 -1099
-636 -1126 -655 -15 -10 68 -61 557 -344 565 -326 575 -331 602 -317 16 8 160
91 322 185 162 94 296 171 298 171 1 0 3 -12 3 -27 -1 -26 -23 -41 -295 -198
-162 -93 -295 -172 -295 -175 0 -3 141 -87 313 -187 l312 -181 3 212 c2 182 0
217 -15 256 -16 40 -17 78 -14 365 l3 320 78 75 c125 120 166 224 163 415 -1
126 -24 228 -72 323 l-30 60 32 16 c40 18 114 36 122 28 3 -3 5 7 5 22 0 15 3
26 8 24 86 -45 149 -62 172 -48 20 13 -6 90 -31 90 -46 0 -64 88 -28 134 26
33 55 33 72 0 l13 -25 16 38 c9 21 26 64 38 97 11 32 31 77 44 100 33 58 59
142 54 177 -4 27 -3 28 13 13 16 -14 27 -37 43 -86 5 -16 13 -13 68 19 35 20
65 38 67 40 2 1 -1 9 -8 16 -8 11 -11 111 -9 363 l3 349 100 57 c55 32 101 61
102 66 2 4 -114 74 -256 155 l-258 148 -338 -197 c-313 -182 -339 -195 -361
-183 l-24 12 28 17 c15 9 165 97 335 194 169 98 307 181 307 185 -1 7 -1124
655 -1146 659 -8 2 -158 -81 -334 -183 -258 -150 -325 -186 -345 -181 -14 4
-25 10 -25 14 0 4 140 88 311 187 172 99 318 185 325 190 11 7 -130 93 -558
340 -315 182 -578 330 -584 330 -19 0 -1144 -659 -1136 -666 4 -4 196 -116
427 -249 231 -133 451 -261 489 -283 l69 -40 -25 -13 c-25 -13 -47 -1 -505
263 -263 151 -488 280 -499 285 -18 9 -49 -5 -186 -86 -91 -53 -169 -96 -175
-96 -5 0 -17 6 -27 13 -16 12 -1 23 143 107 89 51 164 96 166 100 3 4 -254
157 -569 339 l-574 331 -172 -100 c-142 -83 -175 -98 -191 -90 -10 6 -19 14
-19 18 0 5 75 51 166 104 l165 96 -58 35 c-173 103 -843 487 -850 486 -4 0
-261 -148 -570 -328z m901 -178 c111 -64 209 -122 219 -128 15 -11 -12 -29
-202 -139 l-219 -126 -220 127 c-121 71 -218 131 -215 136 2 4 21 16 40 26 36
18 36 19 15 30 -19 10 -22 20 -22 69 l0 58 55 29 55 30 71 -38 70 -39 67 41
c37 22 71 40 76 41 5 0 100 -53 210 -117z m1141 -611 c99 -57 191 -111 203
-119 23 -14 17 -18 -192 -139 -118 -68 -219 -124 -224 -124 -5 0 -107 57 -226
126 l-217 126 68 40 c37 22 111 64 163 95 52 30 120 69 150 88 45 27 59 31 75
22 11 -6 101 -57 200 -115z m2419 -553 c167 -98 209 -134 227 -201 11 -42 8
-155 -5 -177 -13 -20 -36 1 -36 34 0 46 -29 80 -62 72 -37 -10 -76 -44 -98
-88 -22 -43 -26 -119 -8 -137 18 -18 62 -14 91 8 14 11 30 20 36 20 25 0 7
-17 -57 -53 -51 -29 -68 -44 -68 -60 2 -42 -107 -48 -182 -10 -86 44 -288 168
-304 186 -62 70 -10 268 103 391 52 57 135 106 180 106 15 0 92 -38 183 -91z
m-1172 -111 c115 -67 208 -124 208 -127 -1 -10 -421 -246 -436 -245 -13 2
-434 243 -434 249 0 2 51 32 113 68 61 36 157 93 212 126 55 33 107 58 115 55
8 -3 108 -60 222 -126z m2500 -1208 l-3 -300 -32 16 c-18 9 -35 22 -39 28 -4
6 -8 73 -8 148 l0 137 -77 45 c-43 25 -84 48 -92 53 -10 7 -8 11 11 21 22 12
31 10 85 -22 34 -20 64 -36 67 -36 3 0 6 36 6 80 l0 80 38 24 c20 14 39 25 42
25 3 1 4 -134 2 -299z m200 -79 c32 -18 34 -24 14 -41 -12 -9 -27 -5 -75 22
-52 28 -61 37 -61 61 l0 29 48 -28 c26 -15 59 -35 74 -43z"/>
<path d="M8313 5760 l47 -30 0 -64 0 -65 -122 -70 c-68 -38 -131 -76 -141 -83
-16 -12 -17 -39 -15 -385 l3 -372 45 28 c25 15 63 38 86 50 l41 23 148 -86
c132 -76 150 -84 170 -73 12 7 207 120 434 251 319 186 408 243 399 252 -17
15 -1126 654 -1135 654 -5 0 13 -14 40 -30z"/>
<path d="M9610 5120 c0 -380 1 -372 -54 -329 -26 20 -26 22 -26 149 l0 129
-27 14 c-27 14 -40 7 -460 -237 -238 -138 -432 -253 -432 -256 0 -3 188 -113
418 -245 l418 -240 -18 -24 c-12 -15 -19 -40 -19 -66 0 -56 6 -61 253 -205
l196 -115 3 -74 3 -73 221 -128 222 -128 17 37 c34 74 35 75 100 41 127 -67
285 -19 285 87 0 28 -8 43 -36 69 -50 48 -32 42 61 -18 45 -29 90 -51 103 -50
13 1 76 -29 143 -68 66 -39 124 -70 129 -70 5 0 51 25 103 55 51 30 99 55 105
55 10 0 28 -38 20 -44 -1 -1 -42 -25 -91 -53 -74 -43 -85 -52 -72 -63 10 -8
15 -31 15 -71 0 -56 -1 -59 -24 -59 -14 0 -37 5 -53 11 -24 9 -30 7 -42 -10
-10 -16 -24 -21 -57 -21 -34 0 -44 -4 -44 -16 0 -14 13 -16 93 -14 140 4 127
14 127 -92 0 -108 -20 -161 -78 -206 -33 -26 -265 -162 -276 -162 -2 0 -30 78
-62 172 -55 163 -61 176 -109 225 -41 43 -58 53 -83 53 -50 0 -111 -35 -118
-68 -3 -15 -7 -32 -9 -38 -2 -6 0 -29 5 -50 5 -21 7 -40 5 -42 -2 -3 -42 25
-89 62 -81 63 -85 69 -97 120 -9 40 -9 72 -2 116 9 57 8 63 -11 75 -44 27
-410 237 -431 247 -26 11 -36 7 -177 -77 -50 -30 -97 -55 -105 -55 -7 0 -48
20 -90 44 l-76 45 37 17 36 18 0 97 0 98 -69 41 c-39 22 -77 43 -85 46 -10 4
-142 -67 -345 -186 -181 -105 -337 -197 -347 -204 -15 -12 -7 -19 74 -66 50
-30 95 -61 98 -69 4 -9 10 -44 13 -79 l6 -62 274 160 c151 89 279 158 285 156
6 -3 74 -43 151 -89 l140 -83 0 -64 0 -64 -270 -157 -270 -157 -2 -108 -3
-109 189 -107 c103 -60 191 -108 195 -108 3 0 193 108 421 241 359 209 417
239 434 229 12 -6 21 -14 21 -19 0 -4 -185 -115 -410 -246 -226 -131 -407
-241 -403 -245 4 -4 263 -154 575 -333 l566 -327 75 44 c73 43 75 44 81 23 9
-34 9 -33 -41 -63 -61 -34 -60 -34 -44 -43 8 -5 30 1 58 17 25 13 48 21 52 16
5 -5 21 -46 35 -91 31 -94 86 -165 141 -183 30 -10 41 -8 79 11 46 23 66 52
66 97 0 15 -38 141 -84 280 l-84 252 91 54 c154 90 206 116 235 116 15 0 59
-18 97 -41 39 -22 108 -61 155 -86 195 -104 244 -158 258 -284 l7 -62 330
-192 c287 -167 333 -191 351 -181 71 37 484 281 484 286 0 6 -1133 660 -1144
660 -3 0 -74 -39 -156 -87 -83 -47 -152 -84 -154 -82 -2 2 -6 14 -10 25 -6 19
9 30 129 99 74 43 135 79 135 80 0 1 -92 55 -203 119 -186 107 -205 120 -214
151 -6 19 -9 35 -7 35 3 0 110 -61 238 -135 128 -74 237 -135 241 -135 13 0
1135 654 1135 661 0 4 -49 35 -110 69 -101 57 -110 64 -110 91 0 29 0 29 29
14 16 -8 79 -44 141 -80 l112 -64 146 84 c81 47 151 85 157 85 6 0 19 -6 29
-13 17 -12 4 -22 -128 -98 -80 -46 -146 -86 -146 -89 1 -6 494 -290 504 -290
3 0 6 85 6 190 l0 190 -57 32 c-32 18 -70 40 -85 48 -25 14 -292 169 -523 305
-49 29 -127 73 -172 98 l-83 46 0 -340 c0 -208 -4 -339 -10 -339 -23 0 -61 25
-65 44 -3 12 -6 70 -8 130 l-2 109 -312 181 c-293 169 -313 182 -313 208 0 15
2 28 3 28 2 0 143 -80 313 -179 170 -98 310 -178 311 -177 1 1 3 87 4 191 l2
190 -51 30 c-339 198 -447 260 -472 274 -15 9 -61 35 -102 58 l-73 42 -3 -337
c-1 -185 -4 -343 -7 -350 -3 -9 -13 -7 -37 8 l-33 20 -5 124 -5 125 -154 -90
c-97 -57 -157 -87 -163 -81 -24 24 2 49 128 121 72 42 132 80 133 85 2 6 -138
91 -310 191 -287 165 -314 183 -317 209 -3 24 -1 28 15 22 17 -7 605 -344 651
-374 l22 -15 -2 199 -3 198 -50 29 c-27 16 -84 49 -125 72 -41 23 -151 87
-245 142 -93 54 -204 117 -246 140 l-76 42 -6 -256 c-4 -141 -7 -301 -7 -355
0 -54 -3 -98 -6 -98 -3 0 -19 8 -35 17 l-28 17 -3 139 -3 139 -181 105 -182
104 -192 -112 c-187 -108 -193 -111 -221 -98 l-29 14 196 114 196 114 -101 56
c-89 50 -101 59 -101 84 0 15 3 27 6 27 4 0 59 -30 123 -67 64 -36 121 -66
126 -66 6 0 55 27 110 59 208 123 188 115 214 95 23 -17 22 -18 -123 -101 -80
-46 -143 -86 -141 -90 2 -4 62 -40 132 -80 70 -40 138 -80 151 -88 l22 -14 0
198 0 199 -97 55 c-54 30 -125 71 -159 90 -34 19 -115 66 -180 104 -66 39
-149 87 -186 107 l-68 37 0 -359 c0 -390 1 -381 -54 -338 -26 20 -26 21 -26
157 l0 137 -286 165 c-158 91 -293 170 -301 175 -8 6 -13 22 -11 37 3 25 10
22 288 -139 157 -91 291 -167 298 -170 9 -4 12 38 12 189 l0 194 -102 60
c-126 74 -307 174 -314 174 -3 0 -43 -22 -90 -50 -47 -27 -87 -50 -89 -50 -3
0 -5 13 -5 28 0 24 10 33 66 66 36 20 64 39 62 40 -6 6 -152 93 -175 105 l-23
12 0 -351z m620 -960 c13 -9 13 -11 0 -20 -42 -29 -170 -100 -179 -100 -6 0
-15 8 -20 19 -9 16 -1 24 67 64 79 47 105 54 132 37z m-236 -129 c16 -18 15
-20 -19 -41 -32 -20 -39 -21 -66 -10 l-31 13 44 28 c52 34 51 33 72 10z m2222
-105 c23 -17 27 -13 -71 -71 -124 -73 -115 -70 -115 -36 0 27 8 35 78 75 42
25 80 46 83 46 3 0 14 -6 25 -14z m-704 -411 c5 -22 -3 -29 -62 -64 l-68 -39
-11 24 c-10 22 -6 26 57 64 37 22 70 40 73 40 4 0 9 -11 11 -25z m-1035 -667
c-3 -8 -6 -5 -6 6 -1 11 2 17 5 13 3 -3 4 -12 1 -19z"/>
<path d="M7770 5263 c-118 -69 -291 -169 -385 -223 l-170 -98 -3 -423 -2 -424
-39 -22 c-21 -12 -41 -19 -45 -16 -3 4 -6 190 -6 415 l0 408 -42 -21 c-24 -12
-217 -123 -430 -246 l-388 -225 0 -84 c0 -74 2 -84 18 -84 10 0 166 -85 347
-190 182 -105 332 -190 335 -190 3 0 77 42 165 94 l160 93 5 104 5 103 315
183 c173 101 321 183 328 183 7 0 22 -5 33 -10 19 -11 19 -3 19 395 0 223 -1
405 -2 404 -2 0 -100 -57 -218 -126z m-67 -468 c193 -111 207 -121 207 -147 0
-34 26 -46 -245 110 -243 139 -233 132 -203 148 12 7 25 11 28 10 3 -2 98 -56
213 -121z"/>
<path d="M19145 4177 l-90 -53 -6 -180 c-9 -255 -10 -484 -2 -484 3 0 48 24
100 53 l93 52 0 333 c0 182 -1 332 -2 332 -2 0 -43 -24 -93 -53z m53 -538 c4
-31 -41 -89 -68 -89 -37 0 -36 55 3 98 28 30 61 25 65 -9z"/>
<path d="M8927 4197 c-86 -28 -127 -87 -127 -183 0 -69 -38 -197 -65 -219 -13
-11 -70 -45 -127 -75 -152 -81 -234 -170 -254 -275 -4 -21 -18 -54 -31 -74
-17 -25 -23 -46 -21 -73 4 -53 22 -50 30 5 9 69 18 76 40 33 23 -46 35 -41 17
7 -6 19 -9 42 -6 51 9 24 112 68 169 74 40 4 54 11 83 43 37 41 92 144 127
237 15 40 35 69 69 100 26 23 65 71 87 105 59 92 73 102 147 102 54 0 75 -6
149 -44 103 -52 126 -49 31 4 -86 49 -150 68 -202 61 -62 -8 -79 -22 -139
-113 -30 -45 -68 -91 -83 -103 l-29 -20 15 56 c8 31 18 90 23 131 9 85 23 106
90 136 57 26 180 27 265 3 52 -15 69 -27 127 -87 68 -72 104 -80 50 -11 -85
106 -144 134 -292 139 -65 1 -119 -2 -143 -10z m-202 -468 c-41 -115 -137
-251 -166 -234 -13 9 -118 -23 -158 -48 l-34 -21 7 30 c11 44 50 104 94 147
33 32 240 162 264 166 4 0 1 -17 -7 -40z"/>
<path d="M18900 3994 c0 -8 5 -12 10 -9 6 3 10 10 10 16 0 5 -4 9 -10 9 -5 0
-10 -7 -10 -16z"/>
<path d="M18960 3990 c0 -5 5 -10 10 -10 6 0 10 5 10 10 0 6 -4 10 -10 10 -5
0 -10 -4 -10 -10z"/>
<path d="M18845 3949 c-10 -15 3 -25 16 -12 7 7 7 13 1 17 -6 3 -14 1 -17 -5z"/>
<path d="M18955 3920 c-3 -5 1 -10 9 -10 9 0 16 5 16 10 0 6 -4 10 -9 10 -6 0
-13 -4 -16 -10z"/>
<path d="M18825 3871 c-3 -5 -1 -12 5 -16 5 -3 10 1 10 9 0 18 -6 21 -15 7z"/>
<path d="M18926 3865 c-3 -8 -1 -15 4 -15 13 0 22 18 11 24 -5 3 -11 -1 -15
-9z"/>
<path d="M18063 3837 c2 -23 13 -34 65 -63 58 -33 62 -34 62 -15 0 12 -6 21
-13 21 -7 0 -28 11 -47 25 -19 14 -40 23 -47 21 -6 -3 -14 5 -16 17 -4 16 -5
14 -4 -6z"/>
<path d="M18870 3820 c0 -5 5 -10 10 -10 6 0 10 5 10 10 0 6 -4 10 -10 10 -5
0 -10 -4 -10 -10z"/>
<path d="M18020 3612 l0 -179 159 -92 c87 -50 161 -91 165 -91 3 0 6 81 6 179
l0 179 -148 86 c-82 47 -156 88 -165 92 -16 6 -17 -10 -17 -174z m61 135 c25
-17 35 -31 37 -55 4 -38 2 -38 -48 -9 -34 18 -40 27 -40 55 0 38 6 39 51 9z
m167 -132 l3 -37 -48 28 c-70 40 -73 43 -73 80 l0 33 58 -33 c51 -31 57 -38
60 -71z m-167 43 c33 -19 39 -27 39 -56 l0 -33 -42 23 c-35 19 -44 29 -46 56
-4 38 -1 39 49 10z m259 -94 l0 -34 -35 17 c-31 15 -35 21 -35 55 l0 37 35
-20 c29 -17 35 -27 35 -55z m-102 3 c12 -10 17 -67 6 -67 -4 0 -31 14 -60 31
-49 28 -54 34 -54 65 l0 35 48 -27 c26 -15 53 -32 60 -37z m-154 2 c30 -18 36
-26 36 -56 l0 -35 -42 25 c-34 20 -44 32 -46 56 -4 37 5 38 52 10z m256 -90
c0 -33 -10 -36 -45 -13 -18 12 -25 25 -25 50 l0 33 35 -20 c27 -16 35 -27 35
-50z m-90 -36 c0 -18 -2 -33 -5 -33 -3 0 -30 14 -60 31 -50 28 -55 34 -55 65
l0 35 60 -33 c54 -30 60 -36 60 -65z m-132 -12 c4 -37 3 -37 -48 -11 -35 18
-40 25 -40 56 l0 36 43 -25 c33 -20 43 -32 45 -56z m220 -39 c4 -37 2 -38 -38
-17 -25 13 -30 22 -30 51 l0 36 33 -19 c24 -14 33 -27 35 -51z m-140 24 c47
-26 52 -32 52 -63 0 -19 -3 -33 -8 -31 -4 2 -31 17 -60 33 -46 27 -52 34 -52
63 0 19 3 32 8 30 4 -1 31 -16 60 -32z m140 -114 c4 -37 0 -38 -39 -15 -23 14
-29 24 -29 51 l0 34 33 -19 c24 -14 33 -27 35 -51z"/>
<path d="M18200 3755 c0 -29 9 -37 73 -67 41 -20 57 -24 57 -14 0 16 -11 26
-70 57 -25 13 -48 29 -52 34 -4 6 -8 1 -8 -10z"/>
<path d="M18769 3753 c-16 -19 -209 -474 -209 -493 0 -5 4 -10 9 -10 14 0 393
219 414 240 18 16 14 22 -83 141 -56 68 -105 127 -109 132 -4 4 -14 -1 -22
-10z m38 -148 c-13 -41 -18 -70 -12 -72 38 -13 37 -21 -19 -104 -61 -91 -67
-93 -35 -10 l20 55 -20 15 c-20 16 -20 17 31 104 27 48 52 86 54 84 2 -1 -7
-34 -19 -72z"/>
<path d="M18970 3373 c-247 -141 -265 -154 -268 -182 -4 -36 -6 -38 -107 -91
-44 -23 -96 -51 -115 -62 -34 -19 -36 -19 -75 -1 -22 10 -70 36 -107 57 -58
32 -68 42 -68 65 0 15 -3 31 -7 34 -3 4 -30 -6 -60 -23 -29 -16 -55 -30 -58
-30 -3 0 -5 11 -5 24 0 17 11 29 45 47 25 13 45 26 45 29 0 3 -15 14 -32 24
-18 10 -56 34 -85 52 -28 19 -54 34 -57 34 -3 0 -6 -302 -6 -670 l0 -670 63
39 c34 22 179 106 322 189 143 82 287 165 320 185 33 21 66 37 74 37 8 0 111
-56 229 -125 118 -69 217 -124 219 -122 2 2 2 298 1 658 l-3 654 -265 -152z
m-450 -690 c0 -14 -4 -23 -9 -21 -5 2 -100 55 -210 118 -181 104 -200 118
-201 142 0 26 6 23 210 -94 183 -105 210 -124 210 -145z"/>
<path d="M7807 3383 c-4 -3 -7 -50 -7 -104 0 -87 2 -101 23 -123 29 -33 195
-126 213 -119 21 8 20 200 -1 230 -17 24 -184 123 -207 123 -8 0 -18 -3 -21
-7z m124 -60 c44 -25 87 -56 95 -67 17 -25 20 -191 3 -201 -11 -8 -161 75
-194 106 -16 16 -21 36 -23 99 -6 129 0 133 119 63z"/>
<path d="M7870 3305 c-9 -10 -9 -15 -1 -15 7 0 11 -21 11 -56 0 -46 -3 -55
-15 -50 -21 8 -19 -17 3 -30 95 -57 132 -74 132 -60 0 8 -10 18 -21 21 -12 4
-17 10 -12 14 16 10 21 106 8 131 -18 34 -29 8 -26 -62 3 -63 3 -63 -31 -47
-23 10 -24 14 -17 77 9 87 -1 113 -31 77z"/>
<path d="M16436 3219 c11 -72 30 -109 56 -109 13 0 57 20 98 45 l75 45 -46 0
c-55 0 -147 26 -172 48 -17 15 -18 14 -11 -29z"/>
<path d="M8097 3213 c-4 -3 -7 -47 -7 -97 0 -114 18 -104 22 12 l3 84 69 -37
c38 -20 79 -43 92 -52 13 -8 24 -11 24 -6 0 12 -160 103 -181 103 -9 0 -19 -3
-22 -7z"/>
<path d="M8130 3135 c-14 -17 0 -33 53 -57 20 -10 27 -20 27 -40 0 -16 5 -28
10 -28 6 0 10 9 10 19 0 18 2 19 32 4 28 -15 30 -17 14 -29 -16 -11 -16 -14 8
-28 14 -9 38 -23 52 -32 25 -15 29 -15 69 5 24 12 48 28 54 35 15 18 5 60 -20
82 -19 17 -22 17 -80 -15 -49 -27 -59 -29 -59 -16 0 25 -36 71 -74 94 -40 25
-79 27 -96 6z"/>
<path d="M3040 2496 c0 -264 -4 -416 -10 -416 -5 0 -24 9 -42 20 l-33 20 -5
290 -5 291 -300 -175 c-165 -95 -299 -178 -298 -182 3 -12 1136 -665 1148
-661 6 1 83 44 171 95 l161 93 6 287 c5 217 3 290 -6 298 -11 11 -641 376
-744 432 l-43 23 0 -415z"/>
<path d="M8620 2800 c0 -99 -3 -99 -119 -30 -46 28 -86 48 -88 46 -10 -10 173
-116 199 -116 9 0 19 7 22 16 10 26 7 164 -4 164 -6 0 -10 -33 -10 -80z"/>
<path d="M7250 2851 c-5 -11 -10 -53 -10 -93 0 -107 15 -129 128 -194 52 -30
99 -54 107 -54 20 0 25 24 25 119 0 72 -4 93 -20 113 -19 25 -188 128 -208
128 -6 0 -16 -9 -22 -19z m117 -46 c113 -64 117 -71 121 -169 4 -116 -1 -120
-94 -71 -42 22 -89 52 -105 67 -28 25 -29 29 -29 122 0 75 3 96 14 96 7 0 49
-20 93 -45z"/>
<path d="M7325 2790 c-5 -8 -7 -40 -6 -72 2 -47 -1 -58 -13 -58 -32 0 -14 -17
64 -63 57 -33 80 -42 80 -31 0 8 -7 17 -15 20 -17 7 -22 114 -5 114 6 0 3 14
-6 32 -23 44 -32 20 -25 -63 l6 -67 -37 21 c-20 12 -33 24 -29 27 14 9 18 107
6 130 -9 17 -14 19 -20 10z"/>
<path d="M8501 2833 c0 -13 -7 -23 -13 -23 -14 0 32 -39 46 -40 5 0 2 8 -7 18
-8 9 -17 28 -20 42 -4 23 -4 23 -6 3z"/>
<path d="M7703 2772 c-38 -24 -43 -31 -43 -64 0 -45 9 -47 67 -16 44 24 64 68
42 94 -15 18 -16 18 -66 -14z"/>
<path d="M7547 2693 c-4 -3 -7 -52 -7 -108 0 -98 1 -102 28 -127 44 -42 186
-119 205 -112 14 5 17 22 17 104 0 120 -8 133 -132 203 -85 47 -99 52 -111 40z
m123 -63 c54 -31 91 -59 98 -75 13 -27 16 -152 6 -179 -9 -23 -16 -21 -105 30
-118 68 -119 70 -119 181 0 79 2 93 16 93 9 0 56 -22 104 -50z"/>
<path d="M7583 2619 c-21 -22 -15 -33 32 -59 42 -23 45 -27 45 -67 0 -47 -6
-52 -26 -25 -7 9 -14 12 -14 5 0 -14 27 -43 41 -43 5 0 9 22 9 49 l0 50 46
-26 46 -26 -7 24 c-26 82 -134 156 -172 118z"/>
<path d="M7895 2667 c-30 -17 -41 -30 -43 -51 -2 -16 1 -33 7 -39 8 -8 11 -2
11 20 0 26 7 35 45 57 25 15 45 29 45 31 0 11 -28 3 -65 -18z"/>
<path d="M7830 2427 c0 -76 4 -108 16 -125 21 -31 182 -124 208 -120 19 3 21
10 24 92 4 125 -2 136 -113 202 -51 29 -102 54 -114 54 -20 0 -21 -5 -21 -103z
m136 32 c58 -35 85 -57 94 -78 12 -31 11 -173 -2 -186 -9 -10 -157 73 -190
106 -26 26 -28 33 -28 117 0 49 3 91 6 95 9 8 29 -1 120 -54z"/>
<path d="M7910 2432 c0 -24 8 -49 20 -65 26 -33 28 -89 3 -81 -12 4 -9 -1 7
-15 27 -22 52 -29 32 -9 -18 18 -16 78 3 78 8 0 17 14 21 37 7 39 1 48 -58 79
l-28 15 0 -39z"/>
<path d="M3920 1984 l0 -415 -42 23 -43 23 -3 98 c-1 53 -6 97 -9 97 -14 0
-273 -155 -271 -162 2 -4 260 -156 573 -337 l570 -329 55 31 c74 41 76 43 56
66 -17 19 -18 47 -15 420 l4 400 -390 227 c-214 124 -411 237 -437 250 l-48
24 0 -416z m300 66 c0 -5 -187 -118 -212 -128 -4 -2 -8 9 -8 25 0 25 11 34 92
80 76 43 94 49 109 40 11 -7 19 -14 19 -17z"/>
<path d="M9280 2190 c-113 -65 -206 -123 -208 -128 -5 -15 1128 -664 1146
-657 8 3 107 58 218 123 153 88 200 120 191 128 -16 15 -1125 654 -1135 654
-4 0 -99 -54 -212 -120z"/>
<path d="M13723 1982 c-310 -180 -563 -329 -563 -332 0 -7 1121 -654 1140
-658 8 -1 271 146 583 327 547 317 568 330 545 344 -89 56 -1124 647 -1132
647 -6 -1 -264 -148 -573 -328z"/>
<path d="M17965 1859 c-418 -241 -761 -443 -763 -448 -1 -4 11 -14 27 -21 28
-11 53 2 798 431 422 243 770 444 772 446 9 7 -35 32 -54 32 -11 0 -362 -198
-780 -440z"/>
<path d="M18100 1789 c-421 -243 -767 -443 -770 -446 -10 -9 36 -34 56 -30 11
2 364 201 783 443 749 431 761 439 740 457 -12 9 -26 17 -33 17 -6 0 -355
-199 -776 -441z"/>
<path d="M18268 1698 c-423 -244 -768 -448 -768 -454 0 -7 12 -16 28 -21 24
-9 96 30 777 423 413 238 759 438 769 445 19 11 19 12 -3 30 -13 11 -26 19
-30 19 -3 0 -351 -199 -773 -442z"/>
<path d="M18385 1619 c-418 -241 -761 -443 -763 -448 -1 -4 11 -14 27 -20 28
-12 54 1 798 430 422 243 770 444 773 446 9 8 -34 33 -54 32 -12 0 -363 -198
-781 -440z"/>
<path d="M4882 1436 l3 -404 -50 -27 c-27 -16 -58 -34 -68 -40 -16 -11 57 -56
557 -344 567 -327 575 -332 603 -318 15 8 171 99 347 201 311 181 319 185 342
169 14 -9 23 -17 22 -18 -2 -1 -149 -86 -328 -190 -179 -103 -331 -193 -338
-199 -9 -9 35 -40 208 -139 l219 -127 226 0 225 0 0 354 0 353 -172 100 c-95
55 -294 171 -443 257 -148 87 -309 179 -357 206 l-88 49 0 -395 c0 -217 -2
-394 -5 -394 -3 0 -24 9 -45 20 l-40 20 0 403 0 402 -357 207 c-346 200 -449
258 -459 258 -2 0 -3 -182 -2 -404z m533 -70 c20 -15 38 -3 -300 -199 -66 -38
-129 -75 -140 -82 -19 -12 -20 -11 -17 19 4 31 16 40 210 153 114 67 212 122
218 122 5 1 19 -5 29 -13z"/>
<path d="M19105 1708 c-66 -39 -158 -91 -205 -116 -116 -61 -1148 -654 -1195
-687 -22 -14 -45 -23 -52 -21 -7 3 -135 76 -284 161 -148 86 -281 160 -294
165 -22 8 -25 7 -25 -11 0 -11 5 -17 10 -14 6 4 10 -7 10 -24 0 -17 -4 -31
-10 -31 -6 0 -10 -65 -10 -174 l0 -174 426 -246 c234 -135 430 -246 436 -246
6 0 107 56 226 125 118 69 220 125 227 125 7 0 17 -6 23 -13 8 -10 -36 -39
-192 -130 -111 -64 -209 -122 -219 -129 -14 -11 13 -30 205 -140 l221 -128
419 0 418 0 0 890 c0 490 -3 890 -7 890 -5 -1 -62 -33 -128 -72z"/>
<path d="M10478 1491 c-151 -88 -212 -128 -202 -134 10 -6 84 32 229 115 118
68 215 126 215 129 1 24 -50 1 -242 -110z"/>
<path d="M12842 1470 l-252 -148 290 -168 290 -169 -2 -109 -3 -109 -217 -125
c-120 -69 -218 -128 -218 -131 0 -4 85 -55 189 -114 l189 -109 564 327 c309
180 566 330 571 334 6 6 -1115 661 -1142 668 -3 0 -120 -65 -259 -147z"/>
<path d="M14927 1287 c-312 -182 -564 -334 -560 -338 11 -10 1114 -646 1133
-654 9 -3 152 74 350 189 l335 194 3 273 2 274 -343 198 c-189 108 -345 197
-348 196 -2 0 -259 -150 -572 -332z"/>
<path d="M11860 1475 c0 -46 -5 -95 -11 -108 -7 -15 -76 -62 -205 -136 -106
-62 -196 -116 -199 -122 -4 -5 -22 -9 -42 -9 -28 0 -82 26 -230 111 -107 62
-205 125 -219 142 -25 29 -38 54 -61 116 -9 23 -11 22 -36 -29 -26 -52 -27
-60 -27 -214 0 -176 8 -206 66 -275 65 -77 211 -145 368 -172 98 -17 301 -6
394 21 155 44 271 122 316 212 25 49 26 60 26 212 0 140 -3 167 -21 206 -19
42 -94 130 -111 130 -4 0 -8 -38 -8 -85z"/>
<path d="M4137 601 c-301 -176 -556 -325 -567 -332 -18 -13 -2 -24 203 -142
l223 -127 706 0 707 0 221 129 221 129 -113 65 c-695 403 -1034 597 -1043 596
-5 0 -256 -143 -558 -318z"/>
<path d="M13733 592 c-310 -180 -563 -330 -563 -334 0 -3 98 -63 218 -132
l219 -126 705 0 705 0 222 129 c122 71 219 131 214 134 -303 177 -1132 651
-1143 653 -8 2 -268 -144 -577 -324z"/>
<path d="M17050 542 l-1 -187 -27 -40 c-83 -120 -250 -169 -370 -109 -29 14
-53 31 -53 37 -1 7 -1 50 1 96 2 92 5 90 -60 40 -85 -65 -207 -79 -298 -33
l-52 26 0 124 c0 68 -2 124 -4 124 -2 0 -144 -82 -316 -181 l-311 -181 223
-129 223 -129 709 0 710 0 218 127 c120 70 218 129 218 132 0 4 -53 36 -118
72 -64 37 -246 141 -404 232 l-288 166 0 -187z"/>
<path d="M8587 663 c-4 -3 -7 -47 -7 -97 0 -121 10 -136 133 -205 122 -67 127
-65 127 58 0 114 -12 132 -127 199 -88 50 -112 59 -126 45z m122 -59 c45 -26
88 -56 96 -67 19 -27 22 -207 3 -207 -14 0 -133 65 -175 97 l-33 24 0 100 c0
77 3 99 14 99 7 0 50 -21 95 -46z"/>
<path d="M8650 585 c-9 -10 -9 -15 -1 -15 7 0 11 -23 11 -61 0 -54 -2 -60 -15
-49 -12 10 -15 10 -15 -2 0 -12 134 -98 153 -98 22 0 -1 23 -50 50 l-58 32 3
54 c2 30 8 52 13 48 12 -7 11 0 -3 31 -13 29 -21 31 -38 10z"/>
<path d="M8731 546 c-8 -10 -9 -16 -1 -21 5 -3 10 -31 10 -61 0 -66 19 -73 22
-6 3 87 -8 116 -31 88z"/>
<path d="M6940 325 l0 -325 270 0 270 0 0 173 0 172 -98 55 c-53 30 -128 72
-167 94 -38 21 -106 60 -150 86 -44 26 -90 53 -102 59 l-23 12 0 -326z"/>
<path d="M10438 458 l-3 -50 -346 -202 -347 -201 504 -3 504 -2 140 81 c77 45
140 82 140 84 0 2 -35 23 -77 48 -43 25 -176 101 -295 170 l-217 125 -3 -50z"/>
<path d="M8877 493 c-12 -11 -8 -181 5 -208 15 -34 187 -138 220 -133 22 3 23
6 23 104 0 122 -1 123 -123 195 -80 47 -111 57 -125 42z m110 -49 c35 -20 78
-48 94 -61 28 -24 29 -27 29 -118 0 -52 -4 -96 -10 -100 -13 -8 -188 93 -200
116 -6 10 -10 58 -10 108 0 108 1 108 97 55z"/>
<path d="M8909 414 c-8 -10 -9 -18 -3 -22 6 -4 27 -17 47 -30 32 -21 37 -29
37 -63 0 -21 -4 -39 -10 -39 -5 0 -10 5 -10 12 0 6 -2 9 -5 6 -11 -11 8 -38
26 -38 16 0 19 8 19 44 l0 45 45 -26 c25 -13 45 -21 45 -16 0 5 -13 30 -29 54
-47 75 -130 112 -162 73z"/>
<path d="M12453 357 c-117 -67 -212 -124 -213 -127 0 -3 62 -41 138 -85 75
-43 160 -93 188 -112 72 -47 116 -45 193 7 32 22 80 45 108 51 l50 12 87 -52
87 -51 202 2 202 3 -194 111 -194 112 -75 -44 c-72 -43 -75 -44 -100 -28 l-25
16 72 41 c55 32 68 44 59 53 -13 11 -364 214 -370 214 -2 0 -98 -55 -215 -123z"/>
<path d="M9167 323 c-4 -3 -7 -48 -7 -98 0 -78 3 -96 21 -119 22 -28 147 -106
170 -106 8 0 -17 19 -56 41 -114 67 -115 67 -115 175 0 51 4 96 10 99 13 8
196 -100 204 -120 3 -9 6 -57 6 -106 0 -53 4 -89 10 -89 18 0 12 168 -6 200
-10 16 -55 50 -105 79 -83 48 -117 60 -132 44z"/>
<path d="M7570 146 l0 -146 252 0 c138 0 249 2 247 4 -3 2 -433 250 -491 283
-5 2 -8 -61 -8 -141z"/>
<path d="M9250 233 c0 -22 7 -48 15 -59 18 -24 20 -84 3 -84 -7 0 -2 -9 12
-20 27 -21 51 -27 32 -8 -17 17 -15 75 3 82 10 3 15 19 15 44 0 34 -4 41 -40
61 l-40 22 0 -38z"/>
<path d="M5710 117 l-193 -112 197 -3 c109 -1 282 -1 386 0 l189 3 -152 88
c-84 48 -170 98 -193 112 l-40 24 -194 -112z"/>
<path d="M15310 114 l-194 -114 394 0 c216 0 391 2 389 4 -6 6 -389 226 -392
225 -1 0 -90 -52 -197 -115z"/>
<path d="M17815 176 c-49 -29 -137 -81 -195 -114 l-105 -62 400 0 400 0 -200
115 c-110 63 -202 115 -205 115 -3 -1 -45 -25 -95 -54z"/>
<path d="M2933 183 c-9 -3 -13 -32 -13 -94 l0 -89 35 0 35 0 0 83 c0 97 -12
119 -57 100z"/>
</g>
</svg>
